<svg width="130" height="28" viewBox="0 0 130 28" fill="none" xmlns="http://www.w3.org/2000/svg">
<path d="M129.999 10.5449H126.691V23.0114H129.999V10.5449Z" fill="black"/>
<path d="M129.999 4.57812H126.691V7.95973H129.999V4.57812Z" fill="black"/>
<path d="M123.264 4.74805V7.67148H114.813V12.7695H122.02V15.6913H114.813V23.0118H111.383V4.74805H123.264Z" fill="black"/>
<path d="M102.156 15.4497L108.271 23.0114H104.269L99.9433 17.6722L98.6257 19.0006V23.0353H95.3203V4.67578H98.6257V14.9676L103.623 9.86958H107.625L102.156 15.4497Z" fill="black"/>
<path d="M91.345 19.4612L92.3143 22.1658C90.8457 23.005 89.1696 23.4394 87.4661 23.4224C85.2549 23.3985 83.5397 22.771 82.3646 21.5145C81.1895 20.2579 80.6055 18.4953 80.6055 16.2472C80.6055 14.0247 81.2018 12.3151 82.3646 11.0534C83.5274 9.79168 85.2496 9.1728 87.4661 9.1728C88.1487 9.16442 88.8309 9.21303 89.5049 9.31812C90.109 9.42521 90.699 9.59723 91.2641 9.831V12.8416C90.1895 12.3038 88.9928 12.038 87.7845 12.0689C85.2742 12.0928 84.0305 13.4691 84.0305 16.2232C84.0305 19.0749 85.2496 20.4973 87.7089 20.4973C88.9033 20.4973 90.096 20.1553 91.3397 19.4595" fill="black"/>
<path d="M77.1003 12.6509C77.6408 13.7856 77.9131 15.0234 77.8972 16.2736C77.9129 17.5321 77.6407 18.7782 77.1003 19.9219C76.5847 20.9878 75.7543 21.8805 74.7149 22.4863C73.6454 23.1155 72.3524 23.4283 70.8607 23.4283C69.3197 23.4283 68.0267 23.1155 66.9589 22.4863C65.9121 21.8817 65.0729 20.9894 64.5471 19.9219C63.9958 18.7818 63.7236 17.5331 63.752 16.2736C63.7385 15.0238 64.01 13.7866 64.5471 12.6509C65.0729 11.5834 65.9121 10.6911 66.9589 10.0865C68.0267 9.45739 69.3197 9.14453 70.8607 9.14453C72.4017 9.14453 73.6753 9.45739 74.7149 10.0865C75.7543 10.6923 76.5847 11.585 77.1003 12.6509V12.6509ZM74.4915 16.2702C74.4915 14.9418 74.1678 13.8767 73.5469 13.1057C72.9259 12.3347 72.0305 11.9466 70.8607 11.9466C69.6908 11.9466 68.7726 12.333 68.127 13.1057C67.4814 13.8784 67.1823 14.9179 67.1823 16.2702C67.1823 17.6225 67.506 18.6636 68.127 19.4364C68.748 20.2091 69.668 20.5955 70.8607 20.5955C72.0534 20.5955 72.9241 20.2091 73.5469 19.4364C74.1696 18.6636 74.4915 17.6003 74.4915 16.2702Z" fill="black"/>
<path d="M61.5891 20.2814V23.08C60.8972 23.2414 60.1895 23.3302 59.4781 23.345C58.1113 23.321 57.1174 23.0543 56.4876 22.4902C55.8579 21.926 55.543 21.09 55.543 19.9258V4.65039H58.8501V18.8812C58.8501 19.4607 58.9486 19.8711 59.1474 20.0882C59.3462 20.3053 59.6945 20.4301 60.217 20.4301C60.677 20.4368 61.1361 20.3879 61.5838 20.2848" fill="black"/>
<path d="M50.8489 15.3288C51.4452 16.0537 51.7179 16.9256 51.7179 17.9873C51.7179 19.6781 51.1708 20.9346 50.103 21.7809C49.0352 22.6271 47.2198 23.0118 44.6831 23.0118H37.5234V4.74805H44.6814C46.9682 4.74805 48.5849 5.15835 49.5542 5.98068C50.5234 6.803 50.9949 8.00998 50.9949 9.65292C50.9949 10.6428 50.7961 11.4634 50.3739 12.1404C49.9517 12.8174 49.2797 13.3491 48.3861 13.7355C49.3496 14.0212 50.2059 14.5751 50.8489 15.3288ZM47.4432 19.702C47.9903 19.2917 48.2383 18.6386 48.2383 17.7462C48.2383 16.8538 47.9393 16.2229 47.3429 15.8126C46.7466 15.4023 45.8512 15.216 44.6814 15.216H40.952V20.314H44.6814C45.9743 20.314 46.8943 20.1209 47.4414 19.7088L47.4432 19.702ZM47.496 9.9162C47.496 9.02207 47.2726 8.39464 46.8504 8.00827C46.4282 7.6219 45.7069 7.42872 44.6866 7.42872H40.9573V12.5028H44.6814C46.546 12.5028 47.496 11.6326 47.496 9.91791" fill="black"/>
<path d="M27.0603 9.89329C27.6155 10.43 28.0561 11.068 28.3567 11.7706C28.6573 12.4733 28.8121 13.2268 28.8121 13.9878C28.8121 14.7488 28.6573 15.5023 28.3567 16.205C28.0561 16.9077 27.6155 17.5457 27.0603 18.0823L18.6323 26.297C18.0801 26.8366 17.4236 27.2647 16.7006 27.5569C15.9775 27.849 15.2022 27.9994 14.4192 27.9994C13.6361 27.9994 12.8608 27.849 12.1378 27.5569C11.4147 27.2647 10.7583 26.8366 10.2061 26.297L1.76045 18.1063C1.20501 17.5696 0.764222 16.9315 0.463439 16.2286C0.162656 15.5258 0.0078125 14.7721 0.0078125 14.0109C0.0078125 13.2497 0.162656 12.496 0.463439 11.7932C0.764222 11.0903 1.20501 10.4522 1.76045 9.91552L10.1814 1.70939C10.7358 1.17055 11.394 0.743108 12.1184 0.451485C12.8428 0.159862 13.6193 0.00976563 14.4033 0.00976562C15.1874 0.00976563 15.9638 0.159862 16.6882 0.451485C17.4126 0.743108 18.0709 1.17055 18.6253 1.70939L27.0603 9.89329ZM20.7468 16.0479C21.3054 15.5031 21.619 14.7654 21.619 13.9964C21.619 13.2273 21.3054 12.4896 20.7468 11.9448L16.5249 7.84176C15.9643 7.29889 15.2052 6.99407 14.4139 6.99407C13.6226 6.99407 12.8635 7.29889 12.3029 7.84176L8.08102 11.9448C7.52242 12.4896 7.20877 13.2273 7.20877 13.9964C7.20877 14.7654 7.52242 15.5031 8.08102 16.0479L12.3029 20.151C12.8635 20.6938 13.6226 20.9986 14.4139 20.9986C15.2052 20.9986 15.9643 20.6938 16.5249 20.151L20.7468 16.0479Z" fill="#004BEF"/>
</svg>
