<svg width="143" height="35" viewBox="0 0 143 35" fill="none" xmlns="http://www.w3.org/2000/svg">
<path d="M82.9387 18.6256C82.9387 15.1691 81.4893 12.1152 76.5871 12.1152C74.0721 12.1152 72.0742 12.847 70.991 13.4874L71.7849 16.2605C72.7822 15.6218 74.3735 15.0958 75.8755 15.0958C78.3573 15.0922 78.7639 16.5252 78.7639 17.4466V17.6684C73.3465 17.6595 69.9219 19.5702 69.9219 23.4614C69.9219 25.839 71.6605 28.0682 74.6996 28.0682C76.5539 28.0682 78.1207 27.3042 79.0566 26.0984H79.1477C79.1477 26.0984 79.7647 28.7337 83.1771 27.7265C83.0036 26.6226 82.9387 25.4597 82.9387 24.0464V18.6256V18.6256ZM78.8972 22.2752C78.8972 22.5543 78.8744 22.8441 78.7938 23.0928C78.4817 24.1573 77.4057 25.0483 76.0666 25.0483C74.9362 25.0483 74.0493 24.3952 74.0493 23.0266C74.0493 20.9334 76.3137 20.3574 78.8972 20.3717" fill="#0071CE"/>
<path d="M0 7.41211C0 7.41211 3.53855 22.1896 4.10117 24.5834C4.76365 27.3814 5.95019 28.4155 9.37487 27.7267L11.5867 18.5632C12.1458 16.2929 12.5261 14.6649 12.8872 12.3517H12.9485C13.1991 14.6882 13.5602 16.2929 14.0176 18.5704C14.0176 18.5704 14.9202 22.7335 15.3882 24.9143C15.8438 27.0952 17.1268 28.471 20.4866 27.7267L25.7515 7.41211H21.5013L19.6944 16.1999C19.2159 18.7457 18.7812 20.7512 18.443 23.0842H18.3816C18.0767 20.7763 17.6894 18.8531 17.1916 16.3591L15.3198 7.41211H10.8856L8.88761 16.1301C8.31798 18.7922 7.7852 20.9266 7.45043 23.1861H7.39261C7.04736 21.0661 6.57941 18.3664 6.08338 15.8045C6.08338 15.8045 4.89683 9.56255 4.47798 7.41211" fill="#0071CE"/>
<path d="M37.5946 18.6256C37.5946 15.1691 36.1415 12.1152 31.2394 12.1152C28.7314 12.1152 26.7299 12.847 25.6468 13.4874L26.4407 16.2605C27.4345 15.6218 29.0242 15.0958 30.5314 15.0958C33.0131 15.0922 33.4197 16.5252 33.4197 17.4466V17.6684C28.0024 17.6595 24.5742 19.5702 24.5742 23.4614C24.5742 25.839 26.3199 28.0682 29.3449 28.0682C31.2166 28.0682 32.7696 27.3042 33.7055 26.0984H33.8C33.8 26.0984 34.4205 28.7337 37.8294 27.7265C37.6541 26.6226 37.5946 25.4597 37.5946 24.0464V18.6256V18.6256ZM33.5495 22.2752C33.5495 22.5543 33.5267 22.8441 33.4496 23.0928C33.134 24.1573 32.058 25.0483 30.7155 25.0483C29.592 25.0483 28.7017 24.3952 28.7017 23.0266C28.7017 20.9334 30.966 20.3574 33.5495 20.3717" fill="#0071CE"/>
<path d="M39.8008 7.41211V27.7196H43.8458V23.4133V7.41211H39.8008Z" fill="#0071CE"/>
<path d="M95.3555 7.41211V22.3954C95.3555 24.4635 95.7358 25.9055 96.5542 26.7893C97.2728 27.5639 98.4488 28.0684 99.8492 28.0684C101.052 28.0684 102.227 27.8323 102.783 27.6265L102.734 24.4009C102.319 24.4993 101.844 24.5834 101.192 24.5834C99.8107 24.5834 99.355 23.6906 99.355 21.8336V16.0979H102.878V12.2175H99.355V7.41211" fill="#0071CE"/>
<path d="M84.8984 12.4669V27.7256H89.0802V19.9111C89.0802 19.4907 89.1064 19.1275 89.1714 18.7912C89.4833 17.1434 90.7083 16.1004 92.4733 16.1004C92.9658 16.1004 93.3005 16.1559 93.6721 16.2149V12.2146C93.3601 12.1574 93.1481 12.127 92.7642 12.127C91.1991 12.127 89.4254 13.1413 88.677 15.3508H88.5737V12.4669" fill="#0071CE"/>
<path d="M46.1953 12.4669V27.7256H50.2701V18.7697C50.2701 18.3493 50.3157 17.9199 50.4612 17.5317C50.7925 16.6246 51.6144 15.5744 52.9342 15.5744C54.5746 15.5744 55.3493 16.9878 55.3493 19.0273V27.7256H59.4137V18.6623C59.4137 18.267 59.468 17.7821 59.5819 17.4315C59.9079 16.4028 60.7982 15.5744 62.0286 15.5744C63.6866 15.5744 64.4893 16.9574 64.4893 19.3619V27.7256H68.5501V18.7285C68.5501 14.0019 66.1946 12.127 63.5201 12.127C62.3441 12.127 61.4082 12.4221 60.5669 12.9517C59.8553 13.3972 59.2314 14.0251 58.6723 14.8463H58.611C57.9678 13.204 56.457 12.127 54.4834 12.127C51.9527 12.127 50.8029 13.4312 50.1264 14.5332H50.065V12.4669" fill="#0071CE"/>
<path d="M124.762 11.7827C125.561 11.7827 126.234 11.3569 126.322 10.8094L127.114 1.6495C127.114 0.742456 126.068 0 124.762 0C123.45 0 122.41 0.742456 122.41 1.6495L123.209 10.8094C123.294 11.3569 123.963 11.7827 124.762 11.7827Z" fill="#FCB61A"/>
<path d="M119.903 14.6492C120.299 13.9336 120.276 13.1392 119.848 12.785L112.452 7.50551C111.683 7.04752 110.531 7.59318 109.872 8.74891C109.215 9.90284 109.348 11.1981 110.102 11.6472L118.29 15.5222C118.814 15.7226 119.499 15.3505 119.903 14.642" fill="#FCB61A"/>
<path d="M129.62 14.6413C130.039 15.3497 130.724 15.7219 131.234 15.5322L139.422 11.6464C140.183 11.1884 140.297 9.90568 139.654 8.75174C138.997 7.59602 137.838 7.05394 137.07 7.50299L129.673 12.7771C129.262 13.1367 129.233 13.9346 129.629 14.6484" fill="#FCB61A"/>
<path d="M124.762 23.2246C125.561 23.2246 126.234 23.6504 126.322 24.1979L127.114 33.3578C127.114 34.2648 126.068 35.0001 124.762 35.0001C123.45 35.0001 122.41 34.2648 122.41 33.3578L123.209 24.1979C123.294 23.6504 123.963 23.2246 124.762 23.2246Z" fill="#FCB61A"/>
<path d="M129.62 20.3673C130.039 19.657 130.724 19.2777 131.234 19.4835L139.422 23.3621C140.183 23.8112 140.297 25.1046 139.654 26.2604C138.997 27.4072 137.838 27.9528 137.07 27.5038L129.673 22.2225C129.262 21.8665 129.233 21.0721 129.629 20.3673" fill="#FCB61A"/>
<path d="M119.903 20.3577C120.299 21.0715 120.276 21.8641 119.848 22.2219L112.452 27.4942C111.683 27.9522 110.531 27.4047 109.872 26.258C109.215 25.104 109.348 23.8087 110.102 23.3597L118.29 19.481C118.814 19.2771 119.499 19.6528 119.903 20.3577Z" fill="#FCB61A"/>
<path d="M141.82 26.6993H141.922C142.06 26.6993 142.116 26.7441 142.132 26.8568C142.162 26.982 142.177 27.0661 142.207 27.1019H142.47C142.447 27.075 142.417 27.0071 142.402 26.8496C142.372 26.7137 142.304 26.6367 142.207 26.6099V26.5848C142.34 26.5544 142.417 26.4632 142.417 26.3505C142.417 26.2485 142.372 26.1752 142.326 26.1286C142.239 26.0857 142.155 26.0517 141.969 26.0517C141.804 26.0517 141.683 26.066 141.587 26.0893V27.1019H141.82V26.6993V26.6993ZM141.827 26.2378L141.946 26.2217C142.086 26.2217 142.162 26.2879 142.162 26.3809C142.162 26.4847 142.06 26.533 141.93 26.533H141.827V26.2378V26.2378ZM141.976 25.5508C141.401 25.5508 140.945 26.0088 140.945 26.5705C140.945 27.1466 141.401 27.6046 141.976 27.6046C142.558 27.6046 142.999 27.1466 142.999 26.5705C142.999 26.0088 142.558 25.5508 141.976 25.5508ZM141.976 25.7565C142.417 25.7565 142.745 26.1215 142.745 26.5705C142.745 27.0232 142.417 27.3989 141.976 27.3917C141.534 27.3917 141.199 27.0232 141.199 26.5705C141.199 26.1215 141.534 25.7565 141.969 25.7565" fill="#FCB61A"/>
</svg>
