<svg width="22" height="16" viewBox="0 0 22 16" fill="none" xmlns="http://www.w3.org/2000/svg">
<path fill-rule="evenodd" clip-rule="evenodd" d="M8.72867 10.3518L8.72799 4.30976L14.6721 7.34121L8.72867 10.3518ZM21.78 3.26262C21.78 3.26262 21.5648 1.78083 20.9055 1.12831C20.0688 0.271493 19.1311 0.267461 18.7014 0.217732C15.6228 0 11.0048 0 11.0048 0H10.9952C10.9952 0 6.37725 0 3.29862 0.217732C2.86825 0.267461 1.93119 0.271493 1.09381 1.12831C0.4345 1.78083 0.22 3.26262 0.22 3.26262C0.22 3.26262 0 5.00314 0 6.74298V8.37463C0 10.1151 0.22 11.855 0.22 11.855C0.22 11.855 0.4345 13.3368 1.09381 13.9893C1.93119 14.8461 3.0305 14.8192 3.52 14.9086C5.28 15.0739 11 15.125 11 15.125C11 15.125 15.6228 15.1183 18.7014 14.9005C19.1311 14.8501 20.0688 14.8461 20.9055 13.9893C21.5648 13.3368 21.78 11.855 21.78 11.855C21.78 11.855 22 10.1151 22 8.37463V6.74298C22 5.00314 21.78 3.26262 21.78 3.26262Z" fill="white"/>
</svg>
