<svg width="19" height="16" viewBox="0 0 19 16" fill="none" xmlns="http://www.w3.org/2000/svg">
<g style="mix-blend-mode:difference">
<path fill-rule="evenodd" clip-rule="evenodd" d="M19 1.89411C18.3019 2.21538 17.5502 2.43265 16.7618 2.52972C17.5669 2.03048 18.1848 1.23886 18.4758 0.295847C17.722 0.758108 16.8889 1.0944 15.9989 1.27468C15.2897 0.489996 14.2759 0 13.154 0C11.0028 0 9.25744 1.8086 9.25744 4.039C9.25744 4.35565 9.2909 4.66305 9.35781 4.9589C6.1181 4.79018 3.2464 3.18382 1.32265 0.737306C0.98697 1.33593 0.795152 2.03048 0.795152 2.7701C0.795152 4.17075 1.48324 5.40729 2.52932 6.13189C1.89141 6.11224 1.28919 5.92849 0.76281 5.62802V5.67772C0.76281 7.63539 2.10665 9.26833 3.891 9.63814C3.56424 9.7329 3.21964 9.78028 2.86388 9.78028C2.61296 9.78028 2.36761 9.75601 2.13007 9.70863C2.62634 11.3127 4.06498 12.481 5.77126 12.5122C4.43746 13.5962 2.75571 14.2423 0.930093 14.2423C0.615601 14.2423 0.304455 14.2238 0 14.1868C1.72525 15.3309 3.77502 16 5.97535 16C13.1462 16 17.0662 9.84615 17.0662 4.5082C17.0662 4.33254 17.0629 4.15688 17.0562 3.98469C17.8179 3.41495 18.4792 2.70423 19 1.89411Z" fill="white"/>
</g>
</svg>
