<svg width="17" height="16" viewBox="0 0 17 16" fill="none" xmlns="http://www.w3.org/2000/svg">
<g style="mix-blend-mode:difference">
<path d="M3.84578 16V5.20483H0.214258V16H3.84578ZM2.03049 3.73004C3.29686 3.73004 4.08512 2.9011 4.08512 1.8652C4.06153 0.805935 3.29691 0 2.05452 0C0.812322 0 0 0.805951 0 1.8652C0 2.90115 0.788064 3.73004 2.00678 3.73004H2.03038H2.03049ZM5.85582 16H9.48734V9.97145C9.48734 9.64881 9.51093 9.3265 9.60683 9.09586C9.86936 8.45124 10.4669 7.78359 11.4701 7.78359C12.7842 7.78359 13.3099 8.77354 13.3099 10.2247V15.9999H16.9412V9.81007C16.9412 6.49422 15.1496 4.95139 12.7603 4.95139C10.8012 4.95139 9.94104 6.03334 9.46318 6.77025H9.48742V5.2046H5.8559C5.90356 6.21756 5.8559 15.9998 5.8559 15.9998L5.85582 16Z" fill="white"/>
</g>
</svg>
