<svg width="113" height="19" viewBox="0 0 113 19" fill="none" xmlns="http://www.w3.org/2000/svg">
<path fill-rule="evenodd" clip-rule="evenodd" d="M102.777 1.39926C102.777 2.2177 102.167 2.79852 101.37 2.79852C100.574 2.79852 99.9632 2.2177 99.9632 1.39926C99.9632 0.580826 100.574 0 101.37 0C102.167 0 102.777 0.580826 102.777 1.39926ZM80.0654 18.5336L80.9033 16.5536H78.753C77.585 16.5536 77.1868 16.1311 77.1868 14.9959V7.04914H80.6909V5.06905H77.1868V0.0368164H75.0099V5.06905H72.5676V7.04914H75.0099V15.0223C75.0099 17.3984 75.939 18.5336 78.5406 18.5336H80.0654ZM2.30957 11.4318V18.5337H0V0.0528971H7.11453C10.8311 0.0528971 13.2999 2.27059 13.2999 5.72915C13.2999 8.31646 11.7337 10.3229 9.34446 10.983L13.5123 18.5337H10.9107L6.9818 11.4318H2.30957ZM2.31308 9.31948H6.93222C9.37452 9.31948 10.9408 7.89381 10.9408 5.72892C10.9408 3.56402 9.37452 2.16476 6.95877 2.16476H2.31308V9.31948ZM22.1407 18.6915C26.0962 18.6915 28.857 15.893 28.857 11.8008C28.857 7.70864 26.0962 4.91012 22.1407 4.91012C18.1852 4.91012 15.4244 7.70864 15.4244 11.8008C15.4244 15.893 18.1852 18.6915 22.1407 18.6915ZM17.652 11.8013C17.652 14.679 19.4571 16.7647 22.1384 16.7647C24.8196 16.7647 26.6248 14.679 26.6248 11.8013C26.6248 8.92359 24.8196 6.8379 22.1384 6.8379C19.4571 6.8379 17.652 8.92359 17.652 11.8013ZM37.432 18.6915C40.7238 18.6915 42.9272 16.8434 43.4581 13.9393H41.1486C40.7238 15.6554 39.3965 16.7642 37.4586 16.7642C34.857 16.7642 33.1049 14.7578 33.1049 11.8272C33.1049 8.8967 34.857 6.8374 37.4586 6.8374C39.4496 6.8374 40.7769 7.91985 41.1751 9.71513H43.4581C42.9007 6.7582 40.8035 4.91012 37.4851 4.91012C33.5562 4.91012 30.875 7.70864 30.875 11.8272C30.875 16.025 33.4766 18.6915 37.432 18.6915ZM48.0238 14.996V18.5337H45.847V0.0528971H48.0238V12.2238L54.8198 5.06912H57.501L52.2182 10.6398L57.8726 18.5337H55.2445L50.7581 12.1974L48.0238 14.996ZM65.3665 18.6915C68.499 18.6915 70.729 16.7114 71.2599 14.0185H69.0565C68.6052 15.761 67.1186 16.7642 65.2072 16.7642C62.6322 16.7642 61.0128 14.969 60.9332 12.408V12.2232H71.4457L71.4457 12.2229C71.4723 11.9062 71.4988 11.5895 71.4988 11.2992C71.3926 7.31262 68.8972 4.91012 65.0745 4.91012C61.2518 4.91012 58.6502 7.70864 58.6502 11.8008C58.6502 15.9194 61.3049 18.6915 65.3665 18.6915ZM61.0682 10.4282H69.165C68.9526 8.1049 67.3598 6.81124 65.1033 6.81124C63.1123 6.81124 61.2806 8.2369 61.0682 10.4282ZM85.9438 13.5439L83.9794 18.5337H81.5902L88.6782 0.0528971H91.4125L98.4739 18.5337H96.0051L94.0406 13.5439H85.9438ZM93.3453 11.458H86.6289L89.9738 2.56085L93.3453 11.458ZM102.435 5.06902H100.258V18.5336H102.435V5.06902ZM107.585 11.6693V18.5336H105.408V5.06902H107.293L107.585 7.10191C108.222 6.07227 109.258 5.06902 111.673 5.06902H112.284V7.18112H111.195C108.355 7.18112 107.585 9.53082 107.585 11.6693Z" fill="white"/>
</svg>
